HIERARCHY
ROOT SpineBase
{
  OFFSET 0.000000 0.000000 0.000000
  CHANNELS 6 Xposition Yposition Zposition Zrotation Xrotation Yrotation
  JOINT SpineMid
  {
    OFFSET 0.000000 26.865050 0.000000
    CHANNELS 3 Zrotation Xrotation Yrotation
    JOINT SpineShoulder
    {
      OFFSET -0.017900 20.017710 -0.710813
      CHANNELS 3 Zrotation Xrotation Yrotation
      JOINT Neck
      {
        OFFSET -0.038849 6.647262 -0.536680
        CHANNELS 3 Zrotation Xrotation Yrotation
        JOINT Head
        {
          OFFSET 2.130380 12.604955 0.374280
          CHANNELS 3 Zrotation Xrotation Yrotation
          End Site
          {
            OFFSET 0 0 0
          }
        }
      }
      JOINT ShoulderLeft
      {
        OFFSET -12.400312 -2.278067 -7.749361
        CHANNELS 3 Zrotation Xrotation Yrotation
        JOINT ElbowLeft
        {
          OFFSET -5.461064 -22.972057 -2.665473
          CHANNELS 3 Zrotation Xrotation Yrotation
          JOINT WristLeft
          {
            OFFSET 0.962432 -20.462527 -5.780017
            CHANNELS 3 Zrotation Xrotation Yrotation
            JOINT HandLeft
            {
              OFFSET 0.803298 -5.028096 0.556552
              CHANNELS 3 Zrotation Xrotation Yrotation
              JOINT HandTipLeft
              {
                OFFSET 0.249710 -6.000057 -0.597729
                CHANNELS 3 Zrotation Xrotation Yrotation
                End Site
                {
                  OFFSET 0 0 0
                }
              }
              JOINT ThumbLeft
              {
                OFFSET -3.208305 -1.097535 -2.263973
                CHANNELS 3 Zrotation Xrotation Yrotation
                End Site
                {
                  OFFSET 0 0 0
                }
              }
            }
          }
        }
      }
      JOINT ShoulderRight
      {
        OFFSET 11.488150 -1.845271 4.464258
        CHANNELS 3 Zrotation Xrotation Yrotation
        JOINT ElbowRight
        {
          OFFSET 1.849278 -25.828426 4.656887
          CHANNELS 3 Zrotation Xrotation Yrotation
          JOINT WristRight
          {
            OFFSET 2.191769 -20.856989 -5.678670
            CHANNELS 3 Zrotation Xrotation Yrotation
            JOINT HandRight
            {
              OFFSET -0.980918 -5.779281 -1.414142
              CHANNELS 3 Zrotation Xrotation Yrotation
              JOINT HandTipRight
              {
                OFFSET -0.528936 -6.172670 -1.119993
                CHANNELS 3 Zrotation Xrotation Yrotation
                End Site
                {
                  OFFSET 0 0 0
                }
              }
              JOINT ThumbRight
              {
                OFFSET -2.074447 0.339701 -2.115884
                CHANNELS 3 Zrotation Xrotation Yrotation
                End Site
                {
                  OFFSET 0 0 0
                }
              }
            }
          }
        }
      }
    }
  }
  JOINT HipLeft
  {
    OFFSET -5.833523 0.918558 -5.224610
    CHANNELS 3 Zrotation Xrotation Yrotation
    JOINT KneeLeft
    {
      OFFSET -5.844201 -29.909130 1.009627
      CHANNELS 3 Zrotation Xrotation Yrotation
      JOINT AnkleLeft
      {
        OFFSET -1.349941 -32.299425 9.439676
        CHANNELS 3 Zrotation Xrotation Yrotation
        JOINT FootLeft
        {
          OFFSET 3.202801 -2.455979 -9.620823
          CHANNELS 3 Zrotation Xrotation Yrotation
          End Site
          {
            OFFSET 0 0 0
          }
        }
      }
    }
  }
  JOINT HipRight
  {
    OFFSET 5.368080 0.532728 -1.054945
    CHANNELS 3 Zrotation Xrotation Yrotation
    JOINT KneeRight
    {
      OFFSET -2.888321 -24.744430 1.761743
      CHANNELS 3 Zrotation Xrotation Yrotation
      JOINT AnkleRight
      {
        OFFSET -9.313554 -37.817023 7.687500
        CHANNELS 3 Zrotation Xrotation Yrotation
        JOINT FootRight
        {
          OFFSET -0.919137 -5.306386 -2.514521
          CHANNELS 3 Zrotation Xrotation Yrotation
          End Site
          {
            OFFSET 0 0 0
          }
        }
      }
    }
  }
}
MOTION
Frames: 13
Frame Time: 0.033333
25.918055 69.204955 367.404482 0.031033 2.183083 -18.675677 -0.385895 0.236494 18.663327 -0.336973 -0.009043 -0.034001 -8.255730 -1.326081 -0.188028 0.000000 0.000000 0.000000 0.471846 -0.816423 -0.347158 3.305074 -1.328844 -0.401345 1.256105 3.435084 1.844629 -4.551229 -3.679772 -1.241820 0.000000 0.000000 0.000000 0.000000 0.000000 0.000000 87.234550 40.410072 -14.572480 144.786024 35.808952 72.629111 13.592063 -10.655578 -27.812074 -14.220534 5.395600 -1.437018 0.000000 0.000000 0.000000 0.000000 0.000000 0.000000 4.060412 -1.522210 19.019387 -6.474169 2.337079 -1.110794 -21.053441 -43.350166 -39.019259 0.000000 0.000000 0.000000 1.584464 -4.940057 19.089416 1.248575 3.182156 -0.218386 17.080024 41.487271 -20.094250 0.000000 0.000000 0.000000
25.855611 69.178483 367.467653 -0.064865 2.133997 -19.051163 -0.302974 0.254270 19.042126 -0.279819 -0.003060 -0.028613 -9.105363 -1.105228 -0.201245 0.000000 0.000000 0.000000 0.356905 -0.805347 -0.336516 3.308980 -1.333756 -0.404892 1.424610 2.287719 1.689475 -3.885004 -1.453308 -1.015368 0.000000 0.000000 0.000000 0.000000 0.000000 0.000000 86.772889 40.024081 -14.123164 144.643812 35.404912 73.677665 14.335699 -11.609726 -28.228023 -14.886909 6.299796 -0.076477 0.000000 0.000000 0.000000 0.000000 0.000000 0.000000 4.238007 -1.368667 19.393844 -6.648945 2.363300 -1.131661 -16.119794 -39.558668 -34.336789 0.000000 0.000000 0.000000 1.910306 -4.916118 19.509836 1.047766 3.585145 -0.317288 6.204502 37.470131 -11.167170 0.000000 0.000000 0.000000
25.802094 69.145081 367.548232 -0.143162 2.068604 -19.434682 -0.316143 0.264509 19.424260 -0.268768 0.022552 -0.031177 -9.621448 -0.973423 -0.198693 0.000000 0.000000 0.000000 0.125170 -0.897058 -0.274877 3.541581 -1.310904 -0.453932 1.880650 2.800760 1.753319 -5.010927 -2.899576 -1.150028 0.000000 0.000000 0.000000 0.000000 0.000000 0.000000 86.583078 39.885447 -13.927224 144.574707 35.403500 74.559306 15.677625 -11.713285 -27.360012 -18.452220 4.170656 -4.709734 0.000000 0.000000 0.000000 0.000000 0.000000 0.000000 4.312950 -1.189440 19.761594 -6.731069 2.330472 -1.139754 -18.047362 -40.912672 -37.742399 0.000000 0.000000 0.000000 2.053801 -4.678446 19.890812 1.025355 3.601147 -0.327721 0.016250 33.891694 -6.301798 0.000000 0.000000 0.000000
25.765450 69.120295 367.625305 -0.194651 2.045211 -19.855724 -0.379317 0.273777 19.841937 -0.260366 0.073026 -0.034434 -10.023679 -1.122939 -0.193210 0.000000 0.000000 0.000000 0.003999 -0.981615 -0.240768 3.639666 -1.677467 -0.461824 1.940081 3.697475 1.770566 -4.163870 -3.894902 -1.296273 0.000000 0.000000 0.000000 0.000000 0.000000 0.000000 86.912041 40.345207 -14.382076 144.170597 36.075047 75.354475 15.022190 -13.629644 -29.574456 -20.074671 4.964944 -3.376317 0.000000 0.000000 0.000000 0.000000 0.000000 0.000000 4.282923 -1.000849 20.146658 -6.702709 2.160053 -1.124538 -21.392573 -42.723508 -43.425557 0.000000 0.000000 0.000000 2.103615 -4.354424 20.283511 1.041750 3.375071 -0.291094 -1.611456 32.439270 -5.057722 0.000000 0.000000 0.000000
25.703277 69.095138 367.714805 -0.290032 2.005564 -20.214993 -0.463861 0.306273 20.196857 -0.286964 0.113615 -0.043724 -10.200720 -1.338983 -0.176049 0.000000 0.000000 0.000000 -0.085618 -1.053360 -0.196498 3.759385 -2.095220 -0.463191 1.773017 4.420433 1.735175 -4.660615 -3.706106 -1.262968 0.000000 0.000000 0.000000 0.000000 0.000000 0.000000 86.715009 40.302385 -14.146624 144.442728 36.920577 76.793354 13.755902 -13.871693 -30.781569 -18.959873 5.205659 -2.769508 0.000000 0.000000 0.000000 0.000000 0.000000 0.000000 4.361170 -0.853512 20.492426 -6.710586 2.091171 -1.117597 -27.471079 -45.968980 -50.082051 0.000000 0.000000 0.000000 2.068956 -3.700763 20.568619 1.137259 2.653024 -0.150452 0.937490 33.728324 -7.130579 0.000000 0.000000 0.000000
25.648094 69.064445 367.809936 -0.422337 1.940703 -20.403718 -0.565618 0.322718 20.379568 -0.331250 0.130441 -0.057746 -9.970706 -1.402206 -0.146131 0.000000 0.000000 0.000000 -0.064951 -1.029057 -0.154962 3.813599 -2.565018 -0.443504 1.635044 5.513594 1.739594 -3.939329 -6.829885 -1.457568 0.000000 0.000000 0.000000 0.000000 0.000000 0.000000 86.169730 39.904633 -13.495527 145.130521 37.654772 78.466314 11.850677 -13.817280 -32.288822 -18.482253 4.796833 -3.515066 0.000000 0.000000 0.000000 0.000000 0.000000 0.000000 4.461643 -0.723349 20.674710 -6.675026 2.071323 -1.106744 -36.038441 -49.429483 -58.454895 0.000000 0.000000 0.000000 2.036581 -3.162448 20.696516 1.265661 2.112766 -0.039645 7.870446 36.889838 -12.675881 0.000000 0.000000 0.000000
25.608298 69.041020 367.892619 -0.585556 1.904195 -20.518624 -0.702176 0.328959 20.486310 -0.399165 0.145443 -0.077029 -9.261867 -1.624635 -0.100494 0.000000 0.000000 0.000000 0.019330 -1.026758 -0.103702 3.916027 -2.983474 -0.429569 1.933618 6.285180 1.741958 -4.151164 -7.779934 -1.576340 0.000000 0.000000 0.000000 0.000000 0.000000 0.000000 85.473559 39.299024 -12.558634 146.166542 38.308983 79.891433 9.494090 -12.253171 -32.992511 -15.913755 3.910962 -4.666349 0.000000 0.000000 0.000000 0.000000 0.000000 0.000000 4.599841 -0.647431 20.792074 -6.624617 2.097091 -1.098344 -26.962042 -46.741288 -45.803095 0.000000 0.000000 0.000000 1.970923 -2.917442 20.768669 1.548881 1.869372 0.031272 19.160038 40.125651 -21.861932 0.000000 0.000000 0.000000
25.596173 69.012563 367.967894 -0.718711 1.856888 -20.503452 -0.812004 0.322993 20.464217 -0.411114 0.130042 -0.089088 -8.786427 -1.708190 -0.059747 0.000000 0.000000 0.000000 -0.006989 -1.013489 -0.050173 4.032186 -3.198097 -0.430498 1.702227 6.465363 1.672298 -4.246641 -8.195009 -1.533935 0.000000 0.000000 0.000000 0.000000 0.000000 0.000000 84.544116 38.453780 -11.469062 147.009304 38.298873 81.344180 6.985950 -11.553807 -34.783868 -14.842846 3.702053 -4.883835 0.000000 0.000000 0.000000 0.000000 0.000000 0.000000 4.676198 -0.621362 20.782992 -6.519137 2.173892 -1.088192 -26.425144 -46.764920 -44.109519 0.000000 0.000000 0.000000 1.765409 -3.127555 20.735636 2.039240 2.129876 0.020704 32.773036 41.465862 -32.973307 0.000000 0.000000 0.000000
25.573819 68.989206 368.026894 -0.929035 1.819588 -20.317077 -0.823937 0.312105 20.273746 -0.432927 0.080627 -0.102551 -8.180134 -1.671164 -0.011563 0.000000 0.000000 0.000000 0.086895 -0.838919 -0.026735 4.032711 -3.491076 -0.392100 1.807654 6.331048 1.578924 -2.614333 -7.334815 -1.426051 0.000000 0.000000 0.000000 0.000000 0.000000 0.000000 83.985480 37.503777 -10.474112 147.619779 38.082864 82.595671 5.039695 -9.638237 -35.107895 -11.848057 2.926810 -5.449156 0.000000 0.000000 0.000000 0.000000 0.000000 0.000000 4.897416 -0.591835 20.612381 -6.509631 2.319968 -1.091800 -25.770422 -46.448240 -43.386405 0.000000 0.000000 0.000000 1.727278 -2.806471 20.502516 2.258317 1.770868 0.108899 36.621766 42.083983 -36.434007 0.000000 0.000000 0.000000
25.510482 68.969638 368.051196 -1.110709 1.782001 -20.175655 -0.704059 0.297513 20.133899 -0.396247 -0.000960 -0.104291 -8.149223 -1.329473 0.008177 0.000000 0.000000 0.000000 0.058920 -0.662289 -0.013181 3.989143 -3.523224 -0.373390 2.021401 5.851039 1.484681 -3.567925 -5.664890 -1.301562 0.000000 0.000000 0.000000 0.000000 0.000000 0.000000 84.051722 36.752610 -9.967269 147.737962 37.457891 82.722975 3.425095 -7.806227 -35.026798 -9.209510 2.239225 -5.806544 0.000000 0.000000 0.000000 0.000000 0.000000 0.000000 5.198139 -0.587508 20.502073 -6.548371 2.519971 -1.092442 -24.859738 -45.999932 -42.130191 0.000000 0.000000 0.000000 1.926567 -2.724282 20.371535 2.197932 1.843581 0.086891 37.377485 42.065706 -37.021108 0.000000 0.000000 0.000000
25.425994 68.949844 368.057426 -1.338212 1.801691 -20.210870 -0.563709 0.283142 20.171064 -0.383589 -0.064832 -0.109199 -7.905847 -1.314697 0.041514 0.000000 0.000000 0.000000 0.075804 -0.609424 0.016032 4.035919 -3.375280 -0.387548 1.836315 5.669624 1.458773 -2.996318 -6.515065 -1.295393 0.000000 0.000000 0.000000 0.000000 0.000000 0.000000 84.483773 36.414049 -9.830147 147.674595 36.590272 81.703948 4.413142 -5.737444 -32.091978 -10.314304 -2.443042 -14.121362 0.000000 0.000000 0.000000 0.000000 0.000000 0.000000 5.614247 -0.604123 20.577794 -6.655025 2.757545 -1.102134 -24.362355 -45.341393 -42.954815 0.000000 0.000000 0.000000 1.994703 -2.847371 20.405839 2.537735 1.998500 0.093813 33.630279 41.959506 -34.029602 0.000000 0.000000 0.000000
25.362444 68.931734 368.090088 -1.492880 1.788896 -20.217986 -0.413594 0.296598 20.182189 -0.347455 -0.104518 -0.107017 -8.090113 -1.338230 0.062686 0.000000 0.000000 0.000000 0.118800 -0.490395 0.002968 3.902837 -3.391045 -0.356965 1.897143 5.628735 1.435652 -3.390560 -6.637900 -1.291652 0.000000 0.000000 0.000000 0.000000 0.000000 0.000000 85.277874 36.407196 -10.093884 147.312828 35.452315 79.608244 6.403508 -4.057817 -28.389448 -9.894559 -3.700374 -15.810580 0.000000 0.000000 0.000000 0.000000 0.000000 0.000000 5.894659 -0.575805 20.607189 -6.756940 2.912992 -1.112182 -24.556722 -45.587569 -42.804945 0.000000 0.000000 0.000000 2.129739 -3.473399 20.473745 2.787495 2.972084 -0.083225 33.348518 41.757869 -33.650378 0.000000 0.000000 0.000000
25.323548 68.923000 368.116440 -1.629184 1.781243 -20.283010 -0.277009 0.295189 20.250363 -0.307839 -0.134256 -0.104226 -8.073002 -1.381395 0.083798 0.000000 0.000000 0.000000 0.050390 -0.398547 0.003867 3.888724 -3.241480 -0.341863 2.401313 6.605475 1.582631 -3.953528 -8.384619 -1.600525 0.000000 0.000000 0.000000 0.000000 0.000000 0.000000 86.672918 37.019009 -11.073047 146.631074 34.736047 76.810172 9.147634 -2.768288 -24.358643 -11.941247 -5.956779 -20.428086 0.000000 0.000000 0.000000 0.000000 0.000000 0.000000 6.079862 -0.512481 20.676853 -6.795446 2.964984 -1.111825 -24.723725 -45.747727 -42.768616 0.000000 0.000000 0.000000 2.073836 -3.556145 20.525580 3.123085 3.082153 -0.076310 33.983539 44.484138 -35.161444 0.000000 0.000000 0.000000
